<svg width="329" height="333" viewBox="0 0 329 333" fill="none" xmlns="http://www.w3.org/2000/svg">
<path d="M282.816 291.808L205.412 264.731C197.529 261.973 188.766 263.809 182.653 269.499L122.562 325.43C111.239 335.968 92.8131 327.712 93.1429 312.247L94.8927 230.18C95.0703 221.848 90.6281 214.1 83.3478 210.045L11.5912 170.07C-1.91549 162.545 0.256863 142.484 15.0612 138.025L93.7246 114.334C101.701 111.932 107.697 105.319 109.31 97.1472L125.152 16.8981C128.143 1.74645 147.864 -2.38514 156.685 10.2917L203.406 77.4335C208.164 84.2709 216.31 87.9201 224.58 86.9188L306.078 77.0504C321.435 75.1909 331.476 92.709 322.109 105.02L272.338 170.436C267.281 177.083 266.322 185.984 269.847 193.556L304.459 267.904C310.993 281.938 297.427 296.92 282.816 291.808Z" fill="#bca8f6"/>
</svg>
