<?xml version="1.0" encoding="utf-8"?>
<!-- Generator: Adobe Illustrator 21.0.0, SVG Export Plug-In . SVG Version: 6.00 Build 0)  -->
<svg version="1.1" id="Layer_1" xmlns="http://www.w3.org/2000/svg" xmlns:xlink="http://www.w3.org/1999/xlink" x="0px" y="0px"
	 viewBox="0 0 512 512" style="enable-background:new 0 0 512 512;" xml:space="preserve">
<style type="text/css">
	.st0{fill:#FFFFFF;}
</style>
<g>
	<path class="st0" d="M213.3,42.7c0,23.6,19.1,42.7,42.7,42.7s42.7-19.1,42.7-42.7S279.6,0,256,0S213.3,19.1,213.3,42.7z M213.3,256
		c0,23.6,19.1,42.7,42.7,42.7s42.7-19.1,42.7-42.7s-19.1-42.7-42.7-42.7S213.3,232.4,213.3,256z M213.3,469.3
		c0,23.6,19.1,42.7,42.7,42.7s42.7-19.1,42.7-42.7c0-23.6-19.1-42.7-42.7-42.7S213.3,445.8,213.3,469.3z"/>
</g>
</svg>
