<svg width="540" height="540" viewBox="0 0 540 540" fill="none" xmlns="http://www.w3.org/2000/svg">
<g clip-path="url(#clip0_197_224)">
<path d="M294 312C287.815 323.429 260.813 355.739 286.46 371.016C313.056 386.858 292.713 423.015 280.772 432.973" stroke="white" stroke-width="15"/>
<path d="M409.291 85.6149C411.793 84.9443 414.461 85.71 416.226 87.6056L423.982 95.9339C428.2 100.463 435.79 97.6915 436.096 91.5098L436.654 80.2487C436.783 77.6469 438.346 75.332 440.711 74.24L450.99 69.4939C456.614 66.8972 456.342 58.8129 450.556 56.6004L439.937 52.5397C437.519 51.615 435.808 49.4311 435.49 46.8617L434.097 35.6114C433.339 29.4893 425.607 27.2698 421.717 32.0578L414.569 40.8565C412.937 42.8659 410.328 43.8103 407.788 43.3116L396.611 41.1178C390.536 39.9253 386.017 46.628 389.401 51.8128L395.588 61.2922C397.009 63.4688 397.107 66.2534 395.842 68.5242L390.34 78.4024C387.331 83.8056 392.294 90.1711 398.268 88.5697L409.291 85.6149Z" fill="white"/>
<path d="M269.565 339.273C273.641 335.48 279.482 334.256 284.738 336.094L376.175 368.081C388.7 372.462 400.327 359.62 394.727 347.591L353.84 259.765C351.49 254.717 352.129 248.783 355.501 244.352L414.261 167.12C422.289 156.568 413.682 141.553 400.52 143.147L304.292 154.799C298.779 155.466 293.349 153.033 290.177 148.475L235.009 69.195C227.448 58.3291 210.544 61.8705 207.981 74.8576L189.275 169.615C188.199 175.063 184.202 179.471 178.884 181.072L86.0292 209.038C73.3398 212.86 71.4778 230.055 83.055 236.505L167.761 283.693C172.614 286.397 175.576 291.562 175.457 297.117L173.391 394.018C173.109 407.274 188.902 414.351 198.608 405.318L269.565 339.273Z" fill="white"/>
<circle cx="361.5" cy="821.5" r="397" stroke="white" stroke-width="15"/>
<mask id="mask0_197_224" style="mask-type:alpha" maskUnits="userSpaceOnUse" x="-43" y="430" width="810" height="810">
<circle cx="361.502" cy="834.502" r="404.502" fill="#2295E8"/>
</mask>
<g mask="url(#mask0_197_224)">
<g style="mix-blend-mode:multiply">
<path d="M392.195 431.814C367.795 426.392 320.079 452.961 257.722 452.961C203.68 445.912 155.35 468.468 246.878 504.472C303.812 526.868 267.482 603.7 307.607 603.7C347.732 603.7 343.394 552.165 376.47 547.851C409.546 543.536 416.595 437.236 392.195 431.814Z" stroke="white" stroke-width="15"/>
</g>
<g style="mix-blend-mode:multiply">
<path d="M288.43 987.369C312.83 1039.96 204.385 1201.01 202.216 1212.94L142.571 1186.91C147.812 1164.32 157.211 1113.06 152.873 1088.77C147.451 1058.4 105.699 1073.58 89.9747 1039.96C74.2501 1006.35 161.007 953.751 78.0457 920.133C-4.91513 886.514 -49.3778 787.287 -31.4843 698.904C-17.1695 628.197 56.1758 557.744 91.0592 531.355C122.508 525.21 175.104 533.633 133.895 616.485C92.6858 699.337 144.197 672.335 175.104 648.476C212.88 651.368 277.802 670.816 235.292 725.473C182.153 793.794 133.353 823.616 73.1656 831.749C-0.577316 916.879 264.03 934.773 288.43 987.369Z" stroke="white" stroke-width="15"/>
</g>
</g>
</g>
<defs>
<clipPath id="clip0_197_224">
<rect width="540" height="540" rx="50" fill="white"/>
</clipPath>
</defs>
</svg>
