<svg width="548" height="548" viewBox="0 0 548 548" fill="none" xmlns="http://www.w3.org/2000/svg">
<g filter="url(#filter0_d_197_175)">
<g clip-path="url(#clip0_197_175)">
<rect x="4" width="540" height="540" rx="50" fill="url(#paint0_linear_197_175)" shape-rendering="crispEdges"/>
<path d="M298 312C291.815 323.429 264.813 355.739 290.46 371.016C317.056 386.858 296.713 423.015 284.772 432.973" stroke="white" stroke-width="15"/>
<path d="M413.291 85.6149C415.793 84.9443 418.461 85.71 420.226 87.6056L427.982 95.9339C432.2 100.463 439.79 97.6915 440.096 91.5098L440.654 80.2487C440.783 77.6469 442.346 75.332 444.711 74.24L454.99 69.4939C460.614 66.8972 460.342 58.8129 454.556 56.6004L443.937 52.5397C441.519 51.615 439.808 49.4311 439.49 46.8617L438.097 35.6114C437.339 29.4893 429.607 27.2698 425.717 32.0578L418.569 40.8565C416.937 42.8659 414.328 43.8103 411.788 43.3116L400.611 41.1178C394.536 39.9253 390.017 46.628 393.401 51.8128L399.588 61.2922C401.009 63.4688 401.107 66.2534 399.842 68.5242L394.34 78.4024C391.331 83.8056 396.294 90.1711 402.268 88.5697L413.291 85.6149Z" fill="#FFFB9E"/>
<g filter="url(#filter1_d_197_175)">
<path d="M273.565 339.273C277.641 335.48 283.482 334.256 288.738 336.094L380.175 368.081C392.7 372.462 404.327 359.62 398.727 347.591L357.84 259.765C355.49 254.717 356.129 248.783 359.501 244.352L418.261 167.12C426.289 156.568 417.682 141.553 404.52 143.147L308.292 154.799C302.779 155.466 297.349 153.033 294.177 148.475L239.009 69.195C231.448 58.3291 214.544 61.8705 211.981 74.8576L193.275 169.615C192.199 175.063 188.202 179.471 182.884 181.072L90.0292 209.038C77.3398 212.86 75.4778 230.055 87.055 236.505L171.761 283.693C176.614 286.397 179.576 291.562 179.457 297.117L177.391 394.018C177.109 407.274 192.902 414.351 202.608 405.318L273.565 339.273Z" fill="#FFFB9E"/>
</g>
<ellipse cx="128" cy="433.5" rx="12" ry="11.5" fill="white"/>
<path d="M22 399.5C22 409.165 13.9411 417 4 417C-5.94113 417 -14 409.165 -14 399.5C-14 389.835 -5.94113 382 4 382C13.9411 382 22 389.835 22 399.5Z" fill="white"/>
<path d="M562 222.5C562 232.165 553.941 240 544 240C534.059 240 526 232.165 526 222.5C526 212.835 534.059 205 544 205C553.941 205 562 212.835 562 222.5Z" fill="white"/>
<circle cx="365.5" cy="821.5" r="397" stroke="white" stroke-width="15"/>
<mask id="mask0_197_175" style="mask-type:alpha" maskUnits="userSpaceOnUse" x="-39" y="430" width="810" height="810">
<circle cx="365.502" cy="834.502" r="404.502" fill="#2295E8"/>
</mask>
<g mask="url(#mask0_197_175)">
<g style="mix-blend-mode:multiply">
<path d="M396.195 431.814C371.795 426.392 324.079 452.961 261.722 452.961C207.68 445.912 159.35 468.468 250.878 504.472C307.812 526.868 271.482 603.7 311.607 603.7C351.732 603.7 347.394 552.165 380.47 547.851C413.546 543.536 420.595 437.236 396.195 431.814Z" stroke="white" stroke-width="15"/>
</g>
<g style="mix-blend-mode:multiply">
<path d="M292.43 987.369C316.83 1039.96 208.385 1201.01 206.216 1212.94L146.571 1186.91C151.812 1164.32 161.211 1113.06 156.873 1088.77C151.451 1058.4 109.699 1073.58 93.9747 1039.96C78.2501 1006.35 165.007 953.751 82.0457 920.133C-0.915129 886.514 -45.3778 787.287 -27.4843 698.904C-13.1695 628.197 60.1758 557.744 95.0592 531.355C126.508 525.21 179.104 533.633 137.895 616.485C96.6858 699.337 148.197 672.335 179.104 648.476C216.88 651.368 281.802 670.816 239.292 725.473C186.153 793.794 137.353 823.616 77.1656 831.749C3.42268 916.879 268.03 934.773 292.43 987.369Z" stroke="white" stroke-width="15"/>
</g>
</g>
</g>
</g>
<defs>
<filter id="filter0_d_197_175" x="0" y="0" width="548" height="548" filterUnits="userSpaceOnUse" color-interpolation-filters="sRGB">
<feFlood flood-opacity="0" result="BackgroundImageFix"/>
<feColorMatrix in="SourceAlpha" type="matrix" values="0 0 0 0 0 0 0 0 0 0 0 0 0 0 0 0 0 0 127 0" result="hardAlpha"/>
<feOffset dy="4"/>
<feGaussianBlur stdDeviation="2"/>
<feComposite in2="hardAlpha" operator="out"/>
<feColorMatrix type="matrix" values="0 0 0 0 0 0 0 0 0 0 0 0 0 0 0 0 0 0 0.25 0"/>
<feBlend mode="normal" in2="BackgroundImageFix" result="effect1_dropShadow_197_175"/>
<feBlend mode="normal" in="SourceGraphic" in2="effect1_dropShadow_197_175" result="shape"/>
</filter>
<filter id="filter1_d_197_175" x="79.3522" y="62.7529" width="352.011" height="356.617" filterUnits="userSpaceOnUse" color-interpolation-filters="sRGB">
<feFlood flood-opacity="0" result="BackgroundImageFix"/>
<feColorMatrix in="SourceAlpha" type="matrix" values="0 0 0 0 0 0 0 0 0 0 0 0 0 0 0 0 0 0 127 0" result="hardAlpha"/>
<feOffset dx="5" dy="5"/>
<feGaussianBlur stdDeviation="2.5"/>
<feComposite in2="hardAlpha" operator="out"/>
<feColorMatrix type="matrix" values="0 0 0 0 0 0 0 0 0 0 0 0 0 0 0 0 0 0 0.25 0"/>
<feBlend mode="normal" in2="BackgroundImageFix" result="effect1_dropShadow_197_175"/>
<feBlend mode="normal" in="SourceGraphic" in2="effect1_dropShadow_197_175" result="shape"/>
</filter>
<linearGradient id="paint0_linear_197_175" x1="274" y1="0" x2="274" y2="1096.5" gradientUnits="userSpaceOnUse">
<stop stop-color="#001459"/>
<stop offset="1" stop-color="#B49AFF" stop-opacity="0.25"/>
</linearGradient>
<clipPath id="clip0_197_175">
<rect x="4" width="540" height="540" rx="50" fill="white"/>
</clipPath>
</defs>
</svg>
