<svg width="258" height="267" viewBox="0 0 258 267" fill="none" xmlns="http://www.w3.org/2000/svg">
<path d="M119.647 200.618C118.734 202.307 114.744 207.081 118.533 209.338C122.463 211.678 119.457 217.021 117.693 218.492" stroke="white" stroke-width="3"/>
<path d="M162.231 131.561C162.945 131.369 163.708 131.588 164.212 132.13L166.739 134.843C167.944 136.137 170.113 135.345 170.2 133.579L170.382 129.907C170.419 129.164 170.866 128.502 171.541 128.19L174.892 126.643C176.499 125.901 176.421 123.591 174.768 122.959L171.308 121.636C170.617 121.372 170.128 120.748 170.037 120.014L169.584 116.349C169.367 114.6 167.158 113.966 166.047 115.334L163.718 118.2C163.252 118.774 162.507 119.044 161.781 118.901L158.139 118.187C156.404 117.846 155.112 119.761 156.079 121.242L158.096 124.332C158.502 124.954 158.53 125.75 158.169 126.399L156.376 129.618C155.516 131.162 156.934 132.981 158.641 132.523L162.231 131.561Z" fill="#FFFB9E"/>
<g filter="url(#filter0_d_449_123)">
<path d="M119.153 200.476C120.512 199.212 122.459 198.804 124.211 199.417L141.697 205.534C145.872 206.994 149.747 202.714 147.881 198.704L140.062 181.908C139.278 180.226 139.492 178.248 140.615 176.771L151.861 161.99C154.537 158.473 151.668 153.468 147.28 153.999L128.867 156.229C127.029 156.451 125.219 155.64 124.162 154.121L113.606 138.951C111.085 135.329 105.451 136.51 104.596 140.839L101.017 158.97C100.659 160.786 99.3261 162.255 97.5537 162.789L79.7793 168.142C75.5495 169.416 74.9288 175.148 78.7878 177.298L95.0014 186.33C96.6193 187.231 97.6064 188.953 97.5669 190.805L97.1716 209.346C97.0774 213.765 102.342 216.124 105.577 213.113L119.153 200.476Z" fill="#FFFB9E"/>
</g>
<circle cx="54.6593" cy="259.962" r="4.48921" transform="rotate(34.5697 54.6593 259.962)" fill="white"/>
<path d="M26.5673 224.249C24.2226 227.652 19.5636 228.51 16.161 226.165C12.7584 223.82 11.9007 219.161 14.2454 215.759C16.59 212.356 21.2491 211.498 24.6517 213.843C28.0543 216.188 28.9119 220.847 26.5673 224.249Z" fill="white"/>
<path d="M218 223.058C218 227.2 214.642 230.558 210.5 230.558C206.358 230.558 203 227.2 203 223.058C203 218.915 206.358 215.558 210.5 215.558C214.642 215.558 218 218.915 218 223.058Z" fill="white"/>
<mask id="mask0_449_123" style="mask-type:alpha" maskUnits="userSpaceOnUse" x="0" y="0" width="258" height="258">
<rect width="258" height="258" fill="#D9D9D9"/>
</mask>
<g mask="url(#mask0_449_123)">
<circle cx="129.621" cy="275.897" r="58.2644" stroke="white" stroke-width="3"/>
<mask id="mask1_449_123" style="mask-type:alpha" maskUnits="userSpaceOnUse" x="69" y="216" width="121" height="121">
<circle cx="129.621" cy="276.321" r="59.7647" fill="#2295E8"/>
</mask>
<g mask="url(#mask1_449_123)">
<g style="mix-blend-mode:multiply">
<path d="M134.156 216.826C130.55 216.024 123.5 219.95 114.287 219.95C106.303 218.909 99.1619 222.241 112.685 227.561C121.097 230.87 115.729 242.222 121.658 242.222C127.586 242.222 126.945 234.607 131.832 233.97C136.719 233.332 137.761 217.627 134.156 216.826Z" stroke="white" stroke-width="3"/>
</g>
<g style="mix-blend-mode:multiply">
<path d="M118.824 298.908C122.43 306.679 106.407 330.472 106.086 332.235L97.274 328.389C98.0484 325.051 99.437 317.478 98.7961 313.889C97.995 309.403 91.8262 311.646 89.5029 306.679C87.1796 301.712 99.9978 293.941 87.7404 288.974C75.4831 284.007 68.9138 269.346 71.5575 256.287C73.6725 245.84 84.5092 235.431 89.6632 231.532C94.3098 230.624 102.081 231.869 95.9921 244.11C89.9035 256.351 97.5143 252.362 102.081 248.837C107.662 249.264 117.254 252.137 110.973 260.213C103.122 270.307 95.912 274.713 87.0194 275.915C76.124 288.493 115.219 291.137 118.824 298.908Z" stroke="white" stroke-width="3"/>
</g>
<g style="mix-blend-mode:multiply">
<path d="M149.684 235.909C156.761 231.596 162.687 231.304 164.765 231.697C188.607 245.514 189.702 287.638 183.131 284.605C176.559 281.572 179.929 274.158 174.369 274.748C168.809 275.337 182.878 282.583 173.105 285.363C163.333 288.143 159.963 269.44 162.49 267.334C164.512 265.649 170.409 265.621 173.105 265.817C173.105 257.999 172.02 266.366 166.871 263.627C161.722 260.888 164.765 263.543 152.043 264.554C129.549 272.978 136.289 264.385 134.857 262.363C133.425 260.341 140.838 241.301 149.684 235.909Z" stroke="white" stroke-width="3"/>
</g>
</g>
</g>
<defs>
<filter id="filter0_d_449_123" x="76.2202" y="136.804" width="86.6748" height="87.6597" filterUnits="userSpaceOnUse" color-interpolation-filters="sRGB">
<feFlood flood-opacity="0" result="BackgroundImageFix"/>
<feColorMatrix in="SourceAlpha" type="matrix" values="0 0 0 0 0 0 0 0 0 0 0 0 0 0 0 0 0 0 127 0" result="hardAlpha"/>
<feOffset dx="5" dy="5"/>
<feGaussianBlur stdDeviation="2.5"/>
<feComposite in2="hardAlpha" operator="out"/>
<feColorMatrix type="matrix" values="0 0 0 0 0 0 0 0 0 0 0 0 0 0 0 0 0 0 0.25 0"/>
<feBlend mode="normal" in2="BackgroundImageFix" result="effect1_dropShadow_449_123"/>
<feBlend mode="normal" in="SourceGraphic" in2="effect1_dropShadow_449_123" result="shape"/>
</filter>
</defs>
</svg>
